<svg version="1.1" xmlns="http://www.w3.org/2000/svg" xmlns:xlink="http://www.w3.org/1999/xlink" width="96.0148" height="136.01826" viewBox="0,0,96.0148,136.01826"><defs><linearGradient x1="222.91633" y1="207.76976" x2="205.59742" y2="233.95838" gradientUnits="userSpaceOnUse" id="color-1"><stop offset="0" stop-color="#00adff"/><stop offset="1" stop-color="#fff500"/></linearGradient></defs><g transform="translate(-194.9491,-111.86741)"><g data-paper-data="{&quot;isPaintingLayer&quot;:true}" fill-rule="nonzero" stroke-linejoin="miter" stroke-miterlimit="10" stroke-dasharray="" stroke-dashoffset="0" style="mix-blend-mode: normal"><path d="M228.4719,211.82016c-4.78248,7.23178 -11.29759,11.34967 -14.5519,9.19755c-3.25431,-2.15212 -2.01546,-9.75928 2.76702,-16.99106c4.78248,-7.23178 11.29759,-11.34967 14.5519,-9.19755c3.25431,2.15212 2.01546,9.75928 -2.76702,16.99106z" fill="#00adff" stroke="none" stroke-width="0" stroke-linecap="butt"/><path d="M211.31667,238.11702c-4.78248,7.23178 -11.29759,11.34967 -14.5519,9.19755c-3.25431,-2.15212 -2.01546,-9.75928 2.76702,-16.99106c4.78248,-7.23178 11.29759,-11.34967 14.5519,-9.19755c3.25431,2.15212 2.01546,9.75928 -2.76702,16.99106z" fill="#fff100" stroke="none" stroke-width="0" stroke-linecap="butt"/><path d="M220.14932,224.76082c-4.78248,7.23178 -11.29759,11.34967 -14.5519,9.19755c-3.25431,-2.15212 -2.01546,-9.75928 2.76702,-16.99106c4.78248,-7.23178 11.29759,-11.34967 14.5519,-9.19755c3.25431,2.15212 2.01546,9.75928 -2.76702,16.99106z" fill="url(#color-1)" stroke="none" stroke-width="0" stroke-linecap="butt"/><path d="M281.8449,157.23482c-11.29178,17.07476 -28.66638,25.48007 -38.80723,18.77378c-10.14085,-6.70629 -9.20782,-25.98464 2.08396,-43.0594c11.29178,-17.07476 28.66637,-25.48006 38.80722,-18.77377c10.14085,6.70629 9.20782,25.98464 -2.08397,43.05941z" fill="#fff100" stroke="none" stroke-width="NaN" stroke-linecap="butt"/><path d="M258.1537,213.18384c0,0 -0.77656,-20.86683 -10.1482,-25.09725c-3.82217,-1.72535 -15.31544,14.63153 -15.31544,14.63153l-9.19426,-5.68692c0,0 10.52843,-15.88786 6.99848,-19.62669c-6.84379,-7.24876 -28.41269,0.50258 -28.41269,0.50258c0,0 40.39364,-31.48451 54.86818,-21.91228c14.47455,9.57223 1.20391,57.189 1.20391,57.189z" fill="#00fffa" stroke="none" stroke-width="0" stroke-linecap="butt"/><g fill="#29ff00" stroke="#b3b3b3" stroke-width="5" stroke-linecap="round"><path d="M283.97252,126.80742l-11.63187,-7.80702"/><path d="M270.164,135.89626l-1.72523,21.64412l-18.34984,-12.13604l19.65566,-9.78034l7.72248,-11.67747"/></g></g></g></svg>